/* XPM */
static char * bmdc_xpm[] = {
"48 48 342 2",
"  	c None",
". 	c #E9E9E9",
"+ 	c #E2E2E2",
"@ 	c #E1E1E1",
"# 	c #E3E2E2",
"$ 	c #E3E2E1",
"% 	c #E3E3E2",
"& 	c #ADADAD",
"* 	c #AEAEAE",
"= 	c #AFAFAF",
"- 	c #B0B0B0",
"; 	c #B1B1B1",
"> 	c #B2B2B2",
", 	c #B3B3B3",
"' 	c #C0BFBD",
") 	c #8396B4",
"! 	c #8598B5",
"~ 	c #8497B5",
"{ 	c #8397B4",
"] 	c #8296B4",
"^ 	c #8195B4",
"/ 	c #8095B3",
"( 	c #7F94B3",
"_ 	c #7E93B3",
": 	c #7D92B2",
"< 	c #7C92B2",
"[ 	c #7B91B2",
"} 	c #7A90B1",
"| 	c #7990B2",
"1 	c #788FB1",
"2 	c #778EB1",
"3 	c #768EB1",
"4 	c #CDCDCD",
"5 	c #CCCCCC",
"6 	c #CECECE",
"7 	c #D0D0D0",
"8 	c #D1D1D1",
"9 	c #D2D2D2",
"0 	c #D3D3D3",
"a 	c #D4D4D4",
"b 	c #D5D5D5",
"c 	c #D6D6D6",
"d 	c #D8D8D8",
"e 	c #D9D9D9",
"f 	c #DADADA",
"g 	c #F2F0EC",
"h 	c #779FDB",
"i 	c #7CA2DB",
"j 	c #7AA1DB",
"k 	c #789EDA",
"l 	c #769EDA",
"m 	c #749DD9",
"n 	c #739BD9",
"o 	c #709AD8",
"p 	c #6F98D8",
"q 	c #6D97D7",
"r 	c #6B96D7",
"s 	c #6995D6",
"t 	c #6793D6",
"u 	c #6592D5",
"v 	c #6491D4",
"w 	c #628FD5",
"x 	c #608ED4",
"y 	c #5F8DD3",
"z 	c #5D8CD4",
"A 	c #CFCFCF",
"B 	c #D7D7D7",
"C 	c #F2EFEC",
"D 	c #79A0DA",
"E 	c #7EA3DB",
"F 	c #7CA2DA",
"G 	c #7AA0DA",
"H 	c #789FDA",
"I 	c #769DD9",
"J 	c #759CD8",
"K 	c #739BD8",
"L 	c #6E98D7",
"M 	c #6B95D6",
"N 	c #6994D6",
"O 	c #6893D5",
"P 	c #6692D4",
"Q 	c #628FD4",
"R 	c #5F8CD3",
"S 	c #DBDBDB",
"T 	c #7BA1DB",
"U 	c #7FA4DB",
"V 	c #7DA2DA",
"W 	c #7A9FDA",
"X 	c #779FDA",
"Y 	c #739CD8",
"Z 	c #729BD8",
"` 	c #7099D7",
" .	c #6C96D7",
"..	c #6A95D6",
"+.	c #6994D5",
"@.	c #6792D5",
"#.	c #6691D4",
"$.	c #6391D4",
"%.	c #608DD4",
"&.	c #F2F0ED",
"*.	c #7DA2DB",
"=.	c #81A5DC",
"-.	c #7FA3DB",
";.	c #779ED9",
">.	c #759DD8",
",.	c #749CD8",
"'.	c #719AD7",
").	c #7099D8",
"!.	c #6591D4",
"~.	c #DDDDDD",
"{.	c #DCDCDC",
"].	c #F3F1ED",
"^.	c #7EA3DC",
"/.	c #83A6DD",
"(.	c #799EDA",
"_.	c #769ED9",
":.	c #759DD9",
"<.	c #6F98D7",
"[.	c #6E97D7",
"}.	c #6C96D6",
"|.	c #6A95D5",
"1.	c #6894D5",
"2.	c #638FD5",
"3.	c #F3F1EE",
"4.	c #80A5DC",
"5.	c #84A7DD",
"6.	c #82A6DD",
"7.	c #80A5DB",
"8.	c #7AA0DB",
"9.	c #6793D5",
"0.	c #6391D5",
"a.	c #798FB1",
"b.	c #DEDEDE",
"c.	c #F4F2EF",
"d.	c #85A8DD",
"e.	c #84A6DD",
"f.	c #6C97D6",
"g.	c #6995D5",
"h.	c #6591D5",
"i.	c #7990B1",
"j.	c #DFDFDF",
"k.	c #84A7DE",
"l.	c #87AADE",
"m.	c #85A8DE",
"n.	c #83A6DC",
"o.	c #7FA4DC",
"p.	c #799FDA",
"q.	c #789ED9",
"r.	c #769DD8",
"s.	c #749CD9",
"t.	c #729BD7",
"u.	c #6A94D5",
"v.	c #6692D5",
"w.	c #7A90B2",
"x.	c #E0E0E0",
"y.	c #F5F3F0",
"z.	c #88AADF",
"A.	c #87A9DE",
"B.	c #719BD7",
"C.	c #7098D8",
"D.	c #6794D6",
"E.	c #86A9DE",
"F.	c #8AACDE",
"G.	c #89AADE",
"H.	c #86A9DD",
"I.	c #82A6DC",
"J.	c #779DD9",
"K.	c #F6F4F1",
"L.	c #88ABDE",
"M.	c #8CADDE",
"N.	c #80A4DC",
"O.	c #6D97D6",
"P.	c #6A95D7",
"Q.	c #E3E3E3",
"R.	c #F5F4F1",
"S.	c #8AACDF",
"T.	c #8DADDF",
"U.	c #8BADDE",
"V.	c #89ACDF",
"W.	c #83A7DC",
"X.	c #6F99D7",
"Y.	c #6C97D7",
"Z.	c #E4E4E4",
"`.	c #F6F5F2",
" +	c #8BADDF",
".+	c #8FAFE0",
"++	c #8BACDE",
"@+	c #86AADE",
"#+	c #81A6DC",
"$+	c #759CD9",
"%+	c #6D97D8",
"&+	c #E5E5E5",
"*+	c #F7F5F2",
"=+	c #8DAEE0",
"-+	c #91B0E1",
";+	c #8EAFE0",
">+	c #8CADDF",
",+	c #89ABDF",
"'+	c #E6E6E6",
")+	c #F7F5F3",
"!+	c #92B1E1",
"~+	c #90B0E0",
"{+	c #8EAFDF",
"]+	c #88AADE",
"^+	c #82A5DD",
"/+	c #7CA1DB",
"(+	c #7F93B3",
"_+	c #F7F6F3",
":+	c #91B1E0",
"<+	c #93B3E1",
"[+	c #8FB0E0",
"}+	c #8DAEDF",
"|+	c #89ABDE",
"1+	c #80A4DB",
"2+	c #B4B4B4",
"3+	c #E7E7E7",
"4+	c #E8E8E8",
"5+	c #F8F6F3",
"6+	c #92B2E2",
"7+	c #96B4E2",
"8+	c #93B2E1",
"9+	c #7BA1DA",
"0+	c #779EDA",
"a+	c #8195B3",
"b+	c #F8F6F4",
"c+	c #94B3E1",
"d+	c #97B4E2",
"e+	c #95B4E2",
"f+	c #85A7DD",
"g+	c #C2C2C2",
"h+	c #F6F6F6",
"i+	c #F7F7F7",
"j+	c #F8F8F8",
"k+	c #F9F9F9",
"l+	c #FAFAFA",
"m+	c #FBFBFB",
"n+	c #FFFFFF",
"o+	c #91B1E1",
"p+	c #8CAEE0",
"q+	c #84A8DD",
"r+	c #7AA1DA",
"s+	c #729AD9",
"t+	c #6F99D9",
"u+	c #5C5C5C",
"v+	c #292929",
"w+	c #2D2D2D",
"x+	c #313131",
"y+	c #353535",
"z+	c #383838",
"A+	c #3B3B3B",
"B+	c #3F3F3F",
"C+	c #424242",
"D+	c #454545",
"E+	c #494949",
"F+	c #4D4D4D",
"G+	c #4F4F4F",
"H+	c #535353",
"I+	c #565656",
"J+	c #5A5A5A",
"K+	c #5E5E5E",
"L+	c #616161",
"M+	c #646464",
"N+	c #5E5E5F",
"O+	c #F4F2EE",
"P+	c #F1EFEC",
"Q+	c #5F5F5F",
"R+	c #303030",
"S+	c #3E3E3E",
"T+	c #484848",
"U+	c #4C4C4C",
"V+	c #525252",
"W+	c #555555",
"X+	c #585858",
"Y+	c #626262",
"Z+	c #656565",
"`+	c #696969",
" @	c #5D5D5D",
".@	c #2A2A2A",
"+@	c #2F2F2F",
"@@	c #323232",
"#@	c #3C3C3C",
"$@	c #595959",
"%@	c #272727",
"&@	c #2B2B2B",
"*@	c #2E2E2E",
"=@	c #232323",
"-@	c #282828",
";@	c #393939",
">@	c #575757",
",@	c #202020",
"'@	c #252525",
")@	c #2C2C2C",
"!@	c #363636",
"~@	c #464646",
"{@	c #1D1D1D",
"]@	c #222222",
"^@	c #434343",
"/@	c #505050",
"(@	c #545454",
"_@	c #1A1A1A",
":@	c #1E1E1E",
"<@	c #171717",
"[@	c #1B1B1B",
"}@	c #1F1F1F",
"|@	c #404040",
"1@	c #4A4A4A",
"2@	c #515151",
"3@	c #141414",
"4@	c #181818",
"5@	c #1C1C1C",
"6@	c #333333",
"7@	c #101010",
"8@	c #151515",
"9@	c #262626",
"0@	c #4E4E4E",
"a@	c #0D0D0D",
"b@	c #121212",
"c@	c #191919",
"d@	c #3D3D3D",
"e@	c #0A0A0A",
"f@	c #0F0F0F",
"g@	c #4B4B4B",
"h@	c #070707",
"i@	c #0B0B0B",
"j@	c #3A3A3A",
"k@	c #040404",
"l@	c #080808",
"m@	c #0C0C0C",
"n@	c #161616",
"o@	c #F5F5F5",
"p@	c #474747",
"q@	c #000000",
"r@	c #050505",
"s@	c #090909",
"t@	c #131313",
"u@	c #020202",
"v@	c #CBCBCB",
"w@	c #0E0E0E",
"x@	c #111111",
"y@	c #212121",
"z@	c #5B5B5B",
"A@	c #606060",
"                                                                                                ",
"                                                                                                ",
"                                                                                                ",
"      . + + + + + + + + + + + + + + + + + + + @ # $ $ # # # # # # # # # # # # # # # # % .       ",
"      +   & & & * * * = = - - ; ; > > > , , , ' ) ! ~ { ] ^ / ( _ _ : < [ } | 1 2 2 3   %       ",
"      + & 4 5 5 6 6 7 7 8 9 0 a b c c d d e f g h i j k l m n o p q r s t u v w x y z 3 #       ",
"      + & 5 5 4 6 A 7 7 9 9 0 a b c B d d f e C D E F G H I J K o L q M N O P v Q x R 2 #       ",
"      + & 5 4 6 A 7 7 8 9 0 a b c B d d f S f g T U V T W X I Y Z ` L  ...+.@.#.$.Q %.2 #       ",
"      + * 6 6 A A 7 8 9 0 a b c B B d f f S S &.*.=.-.V T W ;.>.,.'.).L  ...+.P !.v x 1 #       ",
"      + * 6 A 7 7 9 9 0 a b c B d d f S S ~.{.].^./.=.E V j (._.:.K '.<.[.}.|.1.P v 2.1 #       ",
"      + * 7 7 7 8 9 0 a b c B d e f S S {.~.~.3.4.5.6.7.E F 8.H I ,.K ` p q M +.9.P 0.a.#       ",
"      + = 7 7 8 9 0 a b c B d e f f S {.~.b.b.c.6.d.e.=.U E T 8.H I ,.Z ).L f.M g.O h.i.#       ",
"      + = 8 9 9 0 a b c B d e f S S ~.~.b.j.j.c.k.l.m.n.=.o.V T p.q.r.s.t.` L }.u.N v.w.#       ",
"      + - 9 9 0 a b c B d e f S S {.~.b.j.x.x.y.d.z.A.d./.=.E V 8.p.;.:.K B.C.q }...D.[ #       ",
"      + - 0 0 a b c B d e f f S {.~.b.j.x.@ @ y.E.F.G.H.5.I.7.E F 8.H J.,.K '.p q M N < #       ",
"      + ; a a b c B d e f S S ~.~.b.j.x.@ + + K.L.M.F.l.E.5.=.N.E F 8.H _.s.Z ` <.O.P.< #       ",
"      + ; b b c B d e f S S {.~.b.j.x.@ + Q.Q.R.S.T.U.V.A.d.W.=.o.V T W ;.I ,.t.X.L Y.: #       ",
"      + > c c B d e f f S {.~.b.j.x.@ + + Q.Z.`. +.+T.++L.@+d.n.#+-.V T p.;.$+K '.C.%+_ #       ",
"      + > B B d e f S S ~.~.b.j.x.@ + Q.Q.&+Z.*+=+-+;+>+++,+E.5.6.4.E i j p.;.s.K '.p _ #       ",
"      + , d d e f S S {.~.b.j.x.@ + Q.Q.Z.&+'+)+;+!+~+{+>+F.]+H.5.^+4.E /+G H _.,.t.o (+#       ",
"      + , e e f f S {.~.b.j.x.@ + + Q.Z.&+'+'+_+:+<+!+[+}+>+|+]+H.n.I.1+V T W q.I ,.Z ( #       ",
"      + 2+e f S S ~.~.b.j.x.@ + Q.Q.&+&+3+3+4+5+6+7+8+-+.+=+++,+l.d./.=.-.*.9+p.0+:.n a+#       ",
"      + , f e f S {.~.b.j.x.@ + Q.Z.Z.'+3+4+4+b+c+d+e+8+:+.+>+++z.A.f+6.=.E F 9+H ;.s.^ #       ",
"      @ g+h+h+h+h+h+i+i+i+j+j+k+k+k+k+l+l+l+m+n+~+8+o+[+p+ +]+E.q+6.4.^./+r+;._.n s+t+(+#       ",
"      Z.u+v+w+x+y+z+A+B+C+D+E+F+G+H+I+J+K+L+M+N+n+5+_+_+*+*+K.K.y.y.c.c.O+3.3.g g P+g ' @       ",
"      Q.Q+R+y+z+A+S+C+D+T+U+G+V+W+X+u+Q+Y+Z+`+M+l+3+'+'+&+Z.Q.+ @ x.j.b.~.~.{.S f e d , +       ",
"      Z. @w+x+y+z+A+B+C+D+T+U+G+V+I+X+u+Q+Y+Z+L+l+'+3+'+&+Z.Q.+ @ x.j.j.b.~.{.S f e e , +       ",
"      Z.u+.@+@@@y+z+#@B+C+D+E+U+G+H+I+$@u+Q+Y+K+l+'+'+Z.Z.Q.+ @ x.j.b.b.{.{.S f e d d , +       ",
"      Z.J+%@&@*@@@y+z+#@B+C+D+E+U+G+V+I+$@u+Q+J+k+&+&+Z.Q.+ @ x.j.b.b.~.{.S f e d B B > +       ",
"      Z.$@=@-@&@+@@@y+;@A+B+C+D+E+U+G+V+I+X+u+>@k+Z.Z.Q.+ @ x.j.j.b.~.{.S f e d B c c > +       ",
"      Z.>@,@'@-@)@+@@@!@z+#@B+C+~@E+U+G+H+I+$@H+k+Q.Q.+ @ x.j.b.b.{.{.S f e d B c b b ; +       ",
"      Z.I+{@]@'@-@)@+@@@y+;@#@B+^@~@E+U+/@H+I+/@k++ + @ x.j.b.b.~.{.S f e d B c b a a ; +       ",
"      Z.(@_@:@]@'@-@)@+@@@y+;@#@B+^@D+E+U+G+H+F+j+@ @ x.j.j.b.~.{.S f e d B c b a a 0 - +       ",
"      Z.V+<@[@}@]@'@v+)@+@@@!@;@#@|@^@~@E+F+/@1@j+x.x.j.b.b.{.{.S f e d B c b a 0 0 9 - +       ",
"      Z.2@3@4@5@}@]@'@v+)@+@6@!@;@#@B+^@~@E+F+~@i+j.j.b.b.~.{.S f e d B c b a 0 0 9 9 = +       ",
"      Z.G+7@8@4@5@}@]@9@-@)@+@@@!@;@#@B+^@~@E+^@i+b.j.b.~.{.S f e d B c b a a 0 9 8 7 = +       ",
"      Z.0@a@b@8@c@5@}@=@9@v+)@+@6@!@;@d@|@^@~@|@i+~.b.{.{.S f e d B c b a 0 0 8 8 7 7 = +       ",
"      Z.U+e@f@b@8@c@5@}@]@9@v+)@R+6@!@;@d@|@^@d@h+~.~.{.S f e d B c b a 0 0 9 8 7 A 6 * +       ",
"      Z.g@h@i@f@b@8@c@5@}@]@9@v+)@+@6@!@;@#@|@j@h+{.{.S f e d B c b a a 0 9 8 7 A 6 6 * +       ",
"      Z.E+k@l@m@f@b@n@c@5@}@=@9@v+w+R+6@!@j@d@!@o@S S f e d B c b a 0 0 8 8 7 A 6 4 4 & +       ",
"      Z.p@q@r@s@m@f@t@n@c@5@,@=@9@v+)@R+6@!@;@6@h+f f e d B c b a 0 0 9 8 7 A 6 4 5 5 & +       ",
"      Z.p@q@u@r@s@m@f@t@8@c@5@}@=@9@v+)@R+6@!@+@o@e e d B c b a a 0 9 8 7 A 6 4 5 v@5 & +       ",
"      Z.~@q@q@q@k@h@e@w@x@8@<@[@:@y@'@-@)@*@@@&@h+d e d B c b a 0 9 9 7 7 6 6 4 5 5 4 & +       ",
"      Z.  ~@p@p@E+g@U+0@/@2@H+W+I+X+$@z@ @K+A@u+g+, , , > > ; ; - - = = = * * & & & &   +       ",
"      . Z.Z.Z.Z.Z.Z.Z.Z.Z.Z.Z.Z.Z.Z.Z.Z.Z.Q.Q.Z.@ + + + + + + + + + + + + + + + + + + + .       ",
"                                                                                                ",
"                                                                                                ",
"                                                                                                "};
