/* XPM */
static char * bmdc_xpm[] = {
"48 48 347 2",
"  	c None",
". 	c #A0A0A0",
"+ 	c #B4B4B4",
"@ 	c #BDBDBD",
"# 	c #C3C3C3",
"$ 	c #C9C9C9",
"% 	c #CECECE",
"& 	c #D2D2D2",
"* 	c #D7D7D7",
"= 	c #DBDBDB",
"- 	c #DEDEDE",
"; 	c #E1E1E1",
"> 	c #E3E3E3",
", 	c #E6E6E6",
"' 	c #E7E7E7",
") 	c #EAEAEA",
"! 	c #E9E9E9",
"~ 	c #E5E5E5",
"{ 	c #E2E2E2",
"] 	c #E0E0E0",
"^ 	c #DDDDDD",
"/ 	c #D8D8D8",
"( 	c #D5D5D5",
"_ 	c #D0D0D0",
": 	c #CCCCCC",
"< 	c #C6C6C6",
"[ 	c #C0C0C0",
"} 	c #B8B8B8",
"| 	c #A5A5A5",
"1 	c #EEEEEE",
"2 	c #F9F9F9",
"3 	c #F8F8F8",
"4 	c #F6F6F6",
"5 	c #F5F5F5",
"6 	c #F4F4F4",
"7 	c #F7F7F7",
"8 	c #D1D1D1",
"9 	c #A1A1A1",
"0 	c #DCDCDC",
"a 	c #DFDEDD",
"b 	c #E0DEDD",
"c 	c #E0DFDE",
"d 	c #F4F5F5",
"e 	c #BEBEBE",
"f 	c #EFEEEE",
"g 	c #D0DEED",
"h 	c #CBDBEE",
"i 	c #CBDBED",
"j 	c #CFDDEB",
"k 	c #C7C7C6",
"l 	c #DADADA",
"m 	c #FEFEFE",
"n 	c #FDFDFD",
"o 	c #FFFFFE",
"p 	c #C9E2FC",
"q 	c #C0DDFC",
"r 	c #CBE5FF",
"s 	c #C5C6C8",
"t 	c #DFDFDF",
"u 	c #696969",
"v 	c #FCFCFC",
"w 	c #FFFEFD",
"x 	c #C7E0F9",
"y 	c #BDDCF9",
"z 	c #BDDBF9",
"A 	c #BCDCF9",
"B 	c #C8E4FF",
"C 	c #C5C5C7",
"D 	c #757575",
"E 	c #C5DFF9",
"F 	c #BBD9F8",
"G 	c #C6E2FD",
"H 	c #C4C6C8",
"I 	c #7B7B7B",
"J 	c #CFCFCF",
"K 	c #EDEDED",
"L 	c #C3DEF6",
"M 	c #B9D9F6",
"N 	c #B9D8F6",
"O 	c #B9D8F5",
"P 	c #C5E0FB",
"Q 	c #C4C6C7",
"R 	c #EFEFEF",
"S 	c #808080",
"T 	c #F3F3F3",
"U 	c #EDEDEE",
"V 	c #FCFCFD",
"W 	c #FEFDFD",
"X 	c #C1DCF5",
"Y 	c #B6D6F3",
"Z 	c #B7D6F3",
"` 	c #C3DFFA",
" .	c #C5C6C7",
"..	c #838383",
"+.	c #EDECEC",
"@.	c #FBFBFC",
"#.	c #FCFBFC",
"$.	c #FEFDFC",
"%.	c #BFDAF3",
"&.	c #B4D5F2",
"*.	c #B4D4F2",
"=.	c #C0DDF8",
"-.	c #C4C5C6",
";.	c #888888",
">.	c #F2F2F2",
",.	c #ECEDED",
"'.	c #FAFBFC",
").	c #FAFBFB",
"!.	c #FDFCFC",
"~.	c #BDD8F2",
"{.	c #B2D2F1",
"].	c #B2D2F0",
"^.	c #BEDBF6",
"/.	c #8E8E8E",
"(.	c #F1F1F1",
"_.	c #ECECEC",
":.	c #FAFAFA",
"<.	c #FBFBFA",
"[.	c #FBFBFB",
"}.	c #FDFCFB",
"|.	c #BAD6EF",
"1.	c #AED0ED",
"2.	c #BAD9F4",
"3.	c #C3C5C6",
"4.	c #F5F6F6",
"5.	c #929292",
"6.	c #F0F0F0",
"7.	c #B6D4ED",
"8.	c #AACDEB",
"9.	c #B7D6F2",
"0.	c #C3C4C6",
"a.	c #979797",
"b.	c #FEFDFB",
"c.	c #B1D1EB",
"d.	c #A5CAE9",
"e.	c #A5C9E9",
"f.	c #A5C9E8",
"g.	c #B2D3EF",
"h.	c #C3C4C5",
"i.	c #9C9C9C",
"j.	c #EBEBEC",
"k.	c #F9F9FA",
"l.	c #FAFAFB",
"m.	c #FCFBFB",
"n.	c #ABCCE8",
"o.	c #9EC4E5",
"p.	c #9EC4E4",
"q.	c #9DC4E5",
"r.	c #ACCFEC",
"s.	c #C2C4C5",
"t.	c #9F9F9F",
"u.	c #A4C6E4",
"v.	c #95BDE0",
"w.	c #95BDE1",
"x.	c #94BDE0",
"y.	c #A3C9E8",
"z.	c #C2C3C4",
"A.	c #A4A4A4",
"B.	c #EBEBEB",
"C.	c #F8F8F9",
"D.	c #FBFAFA",
"E.	c #99BEE0",
"F.	c #88B5DC",
"G.	c #88B4DC",
"H.	c #98C1E3",
"I.	c #C2C3C5",
"J.	c #E4E4E4",
"K.	c #D6D6D6",
"L.	c #EAEAEB",
"M.	c #F7F7F8",
"N.	c #FBF9F9",
"O.	c #8AB5D9",
"P.	c #78AAD4",
"Q.	c #8AB6DD",
"R.	c #C0C2C3",
"S.	c #E9E9EA",
"T.	c #D4D4D4",
"U.	c #F9FAFA",
"V.	c #FAF9FA",
"W.	c #FEFCFC",
"X.	c #74A7D0",
"Y.	c #5D98C9",
"Z.	c #71A7D4",
"`.	c #BEC0C2",
" +	c #A7A7A7",
".+	c #D3D3D3",
"++	c #A5A3A3",
"@+	c #898787",
"#+	c #878584",
"$+	c #888584",
"%+	c #888585",
"&+	c #858281",
"*+	c #D5DCE3",
"=+	c #E2ECF4",
"-+	c #E3ECF4",
";+	c #EAF2FA",
">+	c #CDCDCD",
",+	c #888686",
"'+	c #5D5959",
")+	c #5B5756",
"!+	c #565251",
"~+	c #E2E1E1",
"{+	c #FFFFFF",
"]+	c #C2C2C2",
"^+	c #D9D9D9",
"/+	c #C7C7C7",
"(+	c #D0D1D1",
"_+	c #7E7B7A",
":+	c #4C4746",
"<+	c #494544",
"[+	c #44403F",
"}+	c #DBDADA",
"|+	c #C1C1C1",
"1+	c #7C7979",
"2+	c #494443",
"3+	c #474342",
"4+	c #474242",
"5+	c #423D3D",
"6+	c #D7D6D6",
"7+	c #7A7676",
"8+	c #444040",
"9+	c #3D3838",
"0+	c #D3D2D2",
"a+	c #C0C1C1",
"b+	c #9E9E9E",
"c+	c #C5C5C5",
"d+	c #777575",
"e+	c #403C3D",
"f+	c #3F3B3A",
"g+	c #3F3B3B",
"h+	c #393535",
"i+	c #E9EAEA",
"j+	c #C4C4C4",
"k+	c #747272",
"l+	c #3D3939",
"m+	c #3A3737",
"n+	c #3B3737",
"o+	c #353131",
"p+	c #CCCBCB",
"q+	c #E6E5E5",
"r+	c #C1C0C0",
"s+	c #737071",
"t+	c #393636",
"u+	c #363333",
"v+	c #363434",
"w+	c #363334",
"x+	c #312F2E",
"y+	c #C8C7C8",
"z+	c #E1E2E2",
"A+	c #949494",
"B+	c #706E6F",
"C+	c #363132",
"D+	c #332F30",
"E+	c #342F30",
"F+	c #2E2A2B",
"G+	c #C4C3C3",
"H+	c #919191",
"I+	c #BFBFBF",
"J+	c #D1D2D2",
"K+	c #6E6C6C",
"L+	c #322E2E",
"M+	c #312D2D",
"N+	c #302D2C",
"O+	c #2B2827",
"P+	c #C0BEBF",
"Q+	c #DAD9D9",
"R+	c #8D8D8D",
"S+	c #6B6A69",
"T+	c #2E2B2A",
"U+	c #2A2727",
"V+	c #252222",
"W+	c #BCBBBB",
"X+	c #D6D5D5",
"Y+	c #DFDDDE",
"Z+	c #CBCBCB",
"`+	c #BCBCBC",
" @	c #696767",
".@	c #2A2627",
"+@	c #272524",
"@@	c #282525",
"#@	c #282524",
"$@	c #272525",
"%@	c #221F20",
"&@	c #B9B7B7",
"*@	c #D3D1D1",
"=@	c #D3D2D1",
"-@	c #DCDBDB",
";@	c #848484",
">@	c #BABABA",
",@	c #676465",
"'@	c #272324",
")@	c #242122",
"!@	c #242022",
"~@	c #1F1B1C",
"{@	c #B5B4B4",
"]@	c #CFCECE",
"^@	c #D8D7D7",
"/@	c #C8C8C8",
"(@	c #7F7F7F",
"_@	c #B7B7B7",
":@	c #D1D2D1",
"<@	c #656263",
"[@	c #222021",
"}@	c #201C1D",
"|@	c #201D1E",
"1@	c #1B1719",
"2@	c #B2B0B0",
"3@	c #CBCACA",
"4@	c #CBCAC9",
"5@	c #CCC9C9",
"6@	c #CBC9C9",
"7@	c #CCCACA",
"8@	c #D5D4D4",
"9@	c #787878",
"0@	c #B5B5B5",
"a@	c #626061",
"b@	c #1F1C1D",
"c@	c #1D191A",
"d@	c #171415",
"e@	c #ADABAC",
"f@	c #C7C5C6",
"g@	c #D2D1D1",
"h@	c #BFC0BF",
"i@	c #6E6E6E",
"j@	c #B1B1B1",
"k@	c #747474",
"l@	c #373535",
"m@	c #333131",
"n@	c #2E2C2C",
"o@	c #B7B6B5",
"p@	c #CFCDCD",
"q@	c #CECDCD",
"r@	c #626262",
"s@	c #B9B9B9",
"t@	c #B9B8B8",
"u@	c #CACACA",
"v@	c #8F8F8F",
"w@	c #B3B3B3",
"x@	c #6A6A6A",
"y@	c #767676",
"z@	c #7E7E7E",
"A@	c #878787",
"B@	c #8C8C8C",
"C@	c #909090",
"D@	c #9A9A9A",
"E@	c #A2A2A2",
"F@	c #A3A3A3",
"                                                                                                ",
"                                                                                                ",
"                                                                                                ",
"                                                                                                ",
"            . + @ # $ % & * = - ; > , ' ) ) ! ! ) ! ! , ~ { ] ^ / ( _ : < [ } |                 ",
"          } 1 2 3 4 5 6 6 6 6 6 6 6 6 6 6 6 6 6 6 6 6 6 6 6 6 6 6 6 6 5 4 7 3 4 8               ",
"        9 1 4 ~ 0 ^ ^ ^ ^ ^ ^ ^ ^ ^ ^ ^ ^ ^ ^ a b a a a a a b a a a a a b a c d 4 e             ",
"        + 3 , & 1 1 1 1 1 1 1 1 1 1 1 1 1 1 f g h h h h i i h h h h i i h i j k 4 l             ",
"        @ 7 ^ 1 m m m n m m m m m n m m m m o p q q q q q q q q q q q q q q r s 7 t u           ",
"        # 4 ^ 1 v v v v n v v v v v n v v v w x y y y y y z y y y y y z y A B C 7 ~ D           ",
"        $ 5 ^ 1 v n n v n n n n n v n n n n w E F F F F F F F F F F F F F F G H 7 ) I           ",
"        J 6 ^ K n n n n n n n n n n n n n n w L M N M M N N M N M M N N M O P Q 7 R S           ",
"        & T ^ U v v v v V v v v v v V v v v W X Y Y Z Z Y Y Y Y Z Z Y Y Y Y `  .7 T ..          ",
"        * T ^ +.@.v v #.v v v v v #.v v v v $.%.&.&.&.&.&.&.&.&.&.&.&.&.&.*.=.-.4 5 ;.          ",
"        l >.0 ,.'.'.'.).@.'.'.'.'.).@.'.'.'.!.~.{.].{.{.].].{.].{.{.].].{.].^.-.4 7 /.          ",
"        ^ (.^ _.:.<.<.:.[.<.<.<.<.:.[.<.<.<.}.|.1.1.1.1.1.1.1.1.1.1.1.1.1.1.2.3.4.4 5.          ",
"        t 6.0 _.:.[.[.:.[.[.[.[.[.:.[.[.[.[.}.7.8.8.8.8.8.8.8.8.8.8.8.8.8.8.9.0.5 5 a.          ",
"        ] 6.= _.[.[.[.[.[.[.[.[.[.[.[.[.[.[.b.c.d.e.e.e.e.e.d.e.e.e.e.e.d.f.g.h.T 6 i.          ",
"        { K l j.k.k.:.k.l.:.k.k.:.k.l.:.k.k.m.n.o.o.p.p.o.p.o.o.p.p.o.p.o.q.r.s.>.(.t.          ",
"        ] _.l _.k.k.k.k.k.k.k.k.k.k.k.k.k.k.m.u.v.v.w.w.v.w.v.v.w.w.v.w.v.x.y.z.6.R A.          ",
"        ] ! / B.C.C.C.C.C.C.C.C.C.C.C.C.C.C.D.E.F.G.F.F.G.G.F.G.F.F.G.G.F.F.H.I._._.A.          ",
"        ^ J.K.L.7 7 7 M.7 7 7 7 7 M.7 7 7 7 N.O.P.P.P.P.P.P.P.P.P.P.P.P.P.P.Q.R.S.' |           ",
"        / ] T._.U.:.V.:.l.:.:.:.V.:.l.:.:.:.W.X.Y.Y.Y.Y.Y.Y.Y.Y.Y.Y.Y.Y.Y.Y.Z.`.~ ;  +          ",
"        .+l ( ++@+#+$+#+%+$+#+$+#+#+%+$+#+$+&+*+=+-+-+-+-+-+=+-+-+-+-+-+=+=+;+# t =  +          ",
"        >+& .+,+'+)+)+)+)+)+)+)+)+)+)+)+)+)+!+~+2 2 2 2 2 2 2 2 2 2 2 2 2 2 {+]+^+.+|           ",
"        /+: (+_+:+<+<+<+<+<+<+<+<+<+<+<+<+<+[+}+5 5 5 5 5 6 5 5 5 5 5 6 5 5 [.|+& : .           ",
"        /+: _ 1+2+3+3+3+4+3+3+3+3+3+4+3+3+3+5+6+(.>.>.>.>.>.(.>.>.>.>.>.(.(.7 |+& : .           ",
"        < : (+7+8+5+5+5+5+5+5+5+5+5+5+5+5+5+9+0++._._._._._.+._._._._._.+._.T a+& : b+          ",
"        c+: 8 d+e+f+g+g+g+g+g+g+g+g+g+g+g+g+h+J i+) ) ) ) ) ) ) ) ) ) ) ) ) 6.|+& >+i.          ",
"        j+: 8 k+l+m+m+m+n+m+m+m+m+m+n+m+m+m+o+p+q+q+q+q+q+q+q+q+q+q+q+q+q+q+K r+& >+a.          ",
"        ]+: 8 s+t+u+u+u+v+u+w+w+u+u+v+u+w+w+x+y+; ; ; ; ; ; z+; ; ; ; ; z+; ! |+& : A+          ",
"        ]+: 8 B+C+D+E+D+E+E+E+E+E+D+E+E+E+E+F+G+^ ^ ^ ^ ^ ^ ^ ^ ^ ^ ^ ^ ^ ^ , [ & : H+          ",
"        I+: J+K+L+M+M+M+N+M+M+M+M+M+N+M+M+M+O+P+Q+}+}+}+}+}+Q+}+}+}+}+}+Q+}+{ [ & : R+          ",
"        e : & S+T+U+U+U+O+U+U+U+U+U+O+U+U+U+V+W+X+( ( ( ( ( X+( ( ( ( ( X+X+Y+[ & Z+;.          ",
"        `+: 8  @.@+@@@#@$@@@@@@@@@#@$@@@@@@@%@&@*@0+0+0+=@=@0+0+0+0+=@=@0+*@-@[ & $ ;@          ",
"        >@: & ,@'@)@!@!@)@!@!@!@!@!@)@!@!@!@~@{@]@]@]@]@]@]@]@]@]@]@]@]@]@]@^@[ & /@(@          ",
"        _@>+:@<@[@}@}@}@|@}@}@}@}@}@|@}@}@}@1@2@3@4@5@5@4@6@7@4@5@5@4@6@7@4@8@I+& < 9@          ",
"        0@>+& a@b@c@c@c@c@c@c@c@c@c@c@c@c@c@d@e@f@f@f@f@f@f@f@f@f@f@f@f@f@f@g@h@& c+i@          ",
"        j@>+_ k@l@m@m@m@m@m@m@m@m@m@m@m@m@m@n@o@p@]@]@]@]@]@]@]@]@]@]@]@]@q@/ @ 8 # r@          ",
"        A.: & I+} s@s@s@s@s@s@s@s@s@s@s@s@s@t@e I+I+I+I+I+I+I+I+I+I+I+I+I+I+@ J : e             ",
"          @ : J 8 & & & & & & & & & & & & & & & & & & & & & & & & & & & & & 8 : u@v@            ",
"            w@]+j+c+/+/@Z+Z+: : >+>+>+: : : : : : : : >+>+>+: : : Z+$ /@< c+# e v@              ",
"                x@y@z@..A@B@C@A+a.D@i.. t.E@A.A.F@t.t.b+i.a.A+C@R+A@;@(@9@i@r@                  ",
"                                                                                                ",
"                                                                                                ",
"                                                                                                ",
"                                                                                                ",
"                                                                                                "};
